<?xml version="1.0" encoding="UTF-8"?>
<svg xmlns="http://www.w3.org/2000/svg" xmlns:xlink="http://www.w3.org/1999/xlink" width="400px" height="305px" viewBox="0 0 399 305" version="1.1">
<g id="surface1">
<path style=" stroke:none;fill-rule:nonzero;fill:rgb(57.254902%,79.215686%,32.156863%);fill-opacity:1;" d="M 46.792969 0.328125 C 52.523438 -0.429688 58.511719 0.144531 63.824219 2.507812 C 66.269531 3.695312 68.664062 5.089844 70.597656 7.03125 C 72.875 9.203125 74.71875 11.828125 75.960938 14.71875 C 76.089844 14.71875 76.339844 14.714844 76.464844 14.714844 C 78.316406 12.574219 80.113281 10.367188 82.261719 8.511719 C 85.167969 6.015625 88.335938 3.722656 91.957031 2.386719 C 97.585938 0.207031 103.785156 -0.570312 109.757812 0.433594 C 115.125 1.253906 120.339844 3.527344 124.289062 7.316406 C 127.429688 10.40625 129.796875 14.238281 131.386719 18.339844 C 133.519531 24.042969 134.542969 30.132812 134.578125 36.21875 C 134.550781 38.683594 134.695312 41.148438 134.59375 43.613281 C 134.515625 57.296875 134.609375 70.984375 134.515625 84.671875 C 130.398438 84.828125 126.277344 84.601562 122.160156 84.632812 C 119.105469 84.644531 116.054688 84.585938 113.003906 84.710938 C 111.296875 84.695312 109.589844 84.785156 107.894531 84.601562 C 107.894531 74.765625 107.855469 64.925781 107.871094 55.085938 C 107.828125 49.136719 107.996094 43.175781 107.648438 37.230469 C 107.257812 33.046875 106.238281 28.664062 103.441406 25.402344 C 101.167969 22.917969 97.789062 21.394531 94.40625 21.578125 C 90.976562 21.738281 87.636719 23.300781 85.3125 25.828125 C 82.484375 28.808594 81.019531 32.898438 80.945312 36.976562 C 80.769531 50.15625 80.945312 63.335938 80.933594 76.515625 C 80.933594 79.234375 80.953125 81.957031 80.84375 84.679688 C 76.875 84.746094 72.910156 84.582031 68.941406 84.601562 C 64.089844 84.558594 59.242188 84.609375 54.390625 84.613281 C 54.140625 69.335938 54.570312 54.050781 54.136719 38.769531 C 54.023438 34.523438 53.199219 30.152344 50.835938 26.550781 C 49.113281 23.972656 46.308594 22.21875 43.277344 21.652344 C 39.34375 21.113281 35.230469 22.617188 32.460938 25.445312 C 30.496094 27.4375 29.023438 29.90625 28.105469 32.542969 C 27.261719 35.175781 27.363281 37.976562 27.300781 40.707031 C 27.191406 54.855469 27.335938 69.007812 27.269531 83.15625 C 27.261719 83.632812 27.238281 84.117188 27.210938 84.601562 C 20.328125 84.652344 13.445312 84.550781 6.5625 84.613281 C 4.628906 84.625 2.699219 84.609375 0.765625 84.574219 C 0.773438 70.835938 0.757812 57.097656 0.75 43.363281 C 0.703125 30.449219 0.796875 17.519531 0.0507812 4.621094 C 0.0078125 3.808594 -0.0429688 2.988281 0.0585938 2.179688 C 5.960938 2.007812 11.867188 2.003906 17.773438 2.054688 C 19.554688 2.183594 21.367188 1.917969 23.128906 2.25 C 23.347656 5.261719 23.746094 8.257812 24.148438 11.246094 C 24.25 12.132812 24.3125 13.023438 24.546875 13.886719 C 24.871094 13.632812 25.210938 13.390625 25.472656 13.066406 C 27.554688 10.429688 29.816406 7.882812 32.574219 5.925781 C 36.707031 2.816406 41.722656 1.101562 46.792969 0.328125 Z M 46.792969 0.328125 "/>
<path style=" stroke:none;fill-rule:nonzero;fill:rgb(25.490196%,55.294118%,78.823529%);fill-opacity:1;" d="M 131.371094 1.175781 C 138.644531 1.109375 145.925781 1.085938 153.207031 1.167969 C 156.148438 1.230469 159.097656 1.117188 162.039062 1.28125 C 163.511719 5.824219 164.851562 10.40625 166.308594 14.949219 C 166.871094 16.898438 167.582031 18.8125 168.046875 20.78125 C 168.113281 22 168.261719 23.339844 169.128906 24.277344 L 169.207031 24.375 C 169.96875 27.019531 170.945312 29.609375 171.59375 32.277344 C 171.597656 33.1875 171.773438 34.082031 172.097656 34.929688 C 173.765625 40.292969 175.246094 45.738281 177.523438 50.882812 C 177.964844 51.90625 178.488281 52.898438 178.773438 53.980469 C 178.972656 54.632812 179.058594 55.359375 179.554688 55.875 C 179.652344 55.929688 179.839844 56.035156 179.9375 56.085938 C 180.753906 54.285156 181.253906 52.363281 181.992188 50.53125 C 184.183594 45 185.367188 39.152344 186.859375 33.410156 C 188.398438 27.324219 189.996094 21.253906 191.523438 15.167969 C 192.078125 13.199219 192.464844 11.179688 193.097656 9.238281 C 193.421875 8.71875 193.726562 8.171875 193.859375 7.566406 C 194.3125 5.589844 194.878906 3.644531 195.394531 1.683594 C 197.769531 1.234375 200.195312 1.515625 202.597656 1.464844 C 205.152344 1.390625 207.695312 1.695312 210.25 1.609375 C 214.699219 1.636719 219.144531 1.578125 223.59375 1.699219 C 223.539062 2.375 223.535156 3.054688 223.539062 3.730469 C 222.160156 7.816406 220.429688 11.796875 218.9375 15.851562 C 214.679688 26.65625 210.511719 37.492188 206.25 48.296875 C 200.539062 63.007812 195.519531 78.011719 188.90625 92.359375 C 187.007812 96.449219 184.914062 100.46875 182.425781 104.238281 C 179.589844 108.515625 176.125 112.378906 172.144531 115.617188 C 169.839844 117.386719 167.308594 118.964844 164.558594 119.90625 C 163.871094 120.089844 163.253906 120.3125 162.601562 120.503906 C 160.695312 121.195312 158.621094 121.332031 156.613281 121.484375 C 150.984375 122.042969 143.039062 120.289062 137.464844 119.609375 C 135.296875 119.253906 137.664062 119.730469 130.996094 118.308594 C 131.777344 118.347656 134.820312 118.097656 135.585938 118.035156 C 138.0625 117.664062 140.207031 117.570312 142.570312 116.886719 C 145.066406 115.933594 147.496094 114.777344 149.757812 113.351562 C 150.917969 112.410156 152.417969 112.019531 153.535156 111.023438 C 154.410156 110.261719 155.386719 109.632812 156.277344 108.898438 C 157.613281 107.648438 158.691406 106.15625 159.667969 104.613281 C 161.453125 102.371094 162.847656 99.800781 163.6875 97.046875 C 164.371094 95.570312 164.226562 93.910156 164.621094 92.359375 C 165.03125 90.683594 165.21875 88.957031 165.308594 87.238281 C 165.375 86.195312 164.9375 85.226562 164.621094 84.261719 C 165.242188 83.050781 165.636719 81.679688 165.527344 80.3125 C 165.53125 79.785156 165.140625 79.40625 164.871094 79.003906 C 162.683594 73.574219 160.242188 68.226562 157.980469 62.820312 C 151.898438 48.753906 145.859375 34.667969 139.78125 20.597656 C 136.949219 14.136719 134.300781 7.589844 131.371094 1.175781 Z M 131.371094 1.175781 "/>
<path style=" stroke:none;fill-rule:nonzero;fill:rgb(25.098039%,42.352941%,61.568627%);fill-opacity:1;" d="M 195.023438 1.257812 C 196.613281 1.046875 198.21875 1.1875 199.820312 1.164062 C 208.070312 1.136719 216.324219 1.210938 224.574219 1.246094 C 224.230469 2.074219 223.9375 2.925781 223.539062 3.730469 C 223.535156 3.054688 223.539062 2.375 223.59375 1.699219 C 219.144531 1.578125 214.699219 1.636719 210.25 1.609375 C 207.695312 1.695312 205.152344 1.390625 202.597656 1.464844 C 200.195312 1.515625 197.769531 1.234375 195.394531 1.683594 C 194.878906 3.644531 194.3125 5.589844 193.859375 7.566406 C 193.726562 8.171875 193.421875 8.71875 193.097656 9.238281 C 193.621094 6.550781 194.585938 3.964844 195.023438 1.257812 Z M 195.023438 1.257812 "/>
<path style=" stroke:none;fill-rule:nonzero;fill:rgb(25.098039%,42.352941%,61.568627%);fill-opacity:1;" d="M 168.046875 20.78125 C 168.476562 21.925781 168.808594 23.101562 169.128906 24.277344 C 168.261719 23.339844 168.113281 22 168.046875 20.78125 Z M 168.046875 20.78125 "/>
<path style=" stroke:none;fill-rule:nonzero;fill:rgb(25.098039%,42.352941%,61.568627%);fill-opacity:1;" d="M 171.59375 32.277344 C 173.726562 38.640625 175.308594 45.210938 178.085938 51.339844 C 178.777344 52.78125 179.261719 54.304688 179.554688 55.875 C 179.058594 55.359375 178.972656 54.632812 178.773438 53.980469 C 178.488281 52.898438 177.964844 51.90625 177.523438 50.882812 C 175.246094 45.738281 173.765625 40.292969 172.097656 34.929688 C 171.773438 34.082031 171.597656 33.1875 171.59375 32.277344 Z M 171.59375 32.277344 "/>
<path style=" stroke:none;fill-rule:nonzero;fill:rgb(25.490196%,55.294118%,78.823529%);fill-opacity:1;" d="M 164.871094 79.003906 C 165.140625 79.40625 165.53125 79.785156 165.527344 80.3125 C 165.636719 81.679688 165.242188 83.050781 164.621094 84.261719 C 164.480469 84.300781 164.203125 84.378906 164.0625 84.417969 C 164.554688 83.453125 165.117188 82.488281 165.191406 81.390625 C 165.300781 80.574219 165.039062 79.785156 164.871094 79.003906 Z M 164.871094 79.003906 "/>
<path style=" stroke:none;fill-rule:nonzero;fill:rgb(25.098039%,42.352941%,61.568627%);fill-opacity:1;" d="M 138.753906 96.628906 C 141.328125 96.625 143.910156 96.761719 146.472656 96.425781 C 145.84375 96.613281 145.214844 96.804688 144.558594 96.816406 C 142.160156 96.871094 139.757812 96.820312 137.355469 96.808594 C 137.816406 96.738281 138.285156 96.671875 138.753906 96.628906 Z M 138.753906 96.628906 "/>
<path style=" stroke:none;fill-rule:nonzero;fill:rgb(25.098039%,42.352941%,61.568627%);fill-opacity:1;" d="M 59.910156 129.101562 L 60.015625 129.136719 C 60.023438 129.496094 59.964844 129.976562 59.535156 130.0625 C 59.335938 129.738281 59.621094 129.277344 59.910156 129.101562 Z M 59.910156 129.101562 "/>
<path style=" stroke:none;fill-rule:nonzero;fill:rgb(25.098039%,42.352941%,61.568627%);fill-opacity:1;" d="M 54.914062 143.433594 C 54.972656 142.6875 55.160156 141.957031 55.40625 141.253906 C 55.386719 142.007812 55.273438 142.761719 54.914062 143.433594 Z M 54.914062 143.433594 "/>
<path style=" stroke:none;fill-rule:nonzero;fill:rgb(25.098039%,42.352941%,61.568627%);fill-opacity:1;" d="M 115.84375 165.976562 C 117.605469 165.804688 119.378906 165.933594 121.144531 165.890625 C 125.519531 165.890625 129.898438 165.855469 134.273438 165.914062 L 134.292969 166.0625 C 130.078125 166.105469 125.863281 166.058594 121.652344 166.089844 C 119.714844 166.050781 117.765625 166.246094 115.84375 165.976562 Z M 115.84375 165.976562 "/>
<path style=" stroke:none;fill-rule:nonzero;fill:rgb(25.098039%,42.352941%,61.568627%);fill-opacity:1;" d="M 11.761719 242.90625 C 13.519531 241.476562 14.734375 239.480469 16.511719 238.082031 C 17.707031 239.9375 19.191406 241.566406 20.539062 243.308594 C 23.917969 247.414062 27.1875 251.605469 30.589844 255.695312 C 31.613281 256.90625 32.65625 258.105469 33.628906 259.359375 C 35.304688 259.449219 36.964844 259.089844 38.636719 259.1875 C 42.730469 259.289062 46.828125 259.394531 50.925781 259.382812 C 49.875 257.089844 49.582031 254.503906 49.910156 252.019531 C 50.421875 249.585938 51.628906 247.324219 53.210938 245.421875 C 55.234375 243.023438 58.433594 241.710938 61.550781 241.960938 C 63.832031 242.109375 65.960938 243.101562 67.824219 244.375 C 71.363281 246.789062 74.003906 250.253906 76.277344 253.832031 C 77.386719 255.652344 78.582031 257.433594 79.480469 259.375 C 80.535156 259.640625 81.625 259.410156 82.695312 259.4375 C 84.433594 259.367188 86.171875 259.496094 87.90625 259.351562 C 88 261.574219 87.886719 263.796875 87.914062 266.015625 C 85.695312 266.027344 83.476562 266.007812 81.261719 266.097656 C 81.097656 273.878906 81.160156 281.664062 81.152344 289.449219 C 81.183594 294.492188 81.070312 299.535156 81.179688 304.574219 C 78.695312 304.640625 76.210938 304.699219 73.730469 304.65625 C 73.832031 291.828125 73.6875 278.996094 73.757812 266.167969 C 71.0625 266.191406 68.371094 266.246094 65.679688 266.230469 C 65.597656 269.21875 65.71875 272.207031 65.648438 275.195312 C 65.5625 277.636719 64.621094 280.113281 62.757812 281.746094 C 60.765625 283.433594 58.269531 284.480469 55.703125 284.835938 C 56.847656 286.414062 57.941406 288.027344 59.09375 289.601562 C 61.089844 292.414062 63.457031 294.9375 65.828125 297.433594 C 66.734375 298.429688 67.8125 299.269531 68.640625 300.335938 C 68.554688 300.691406 68.144531 300.882812 67.90625 301.152344 C 66.46875 302.355469 65.132812 303.6875 63.691406 304.882812 C 62.289062 304.832031 61.273438 303.589844 60.257812 302.742188 C 56.367188 298.671875 53.070312 294.074219 49.886719 289.445312 C 47.078125 285.355469 44.566406 281.078125 42.15625 276.746094 C 41.699219 275.832031 40.910156 275.011719 40.851562 273.949219 C 41.082031 273.523438 41.636719 273.449219 42.007812 273.175781 C 43.574219 272.125 45.003906 270.871094 46.578125 269.828125 C 47.277344 270.625 47.644531 271.632812 48.199219 272.519531 C 48.96875 273.875 49.789062 275.195312 50.5625 276.550781 C 51.101562 277.488281 52.054688 278.28125 53.1875 278.296875 C 54.902344 278.441406 57.15625 278.195312 57.90625 276.371094 C 58.496094 273.007812 58.125 269.574219 58.234375 266.179688 C 55.273438 266.023438 52.304688 266.148438 49.339844 266.125 C 45.429688 266.113281 41.515625 266.160156 37.605469 266.21875 C 37.484375 268.523438 37.535156 270.832031 37.527344 273.144531 C 37.464844 283.609375 37.480469 294.074219 37.441406 304.542969 C 35.007812 304.558594 32.574219 304.671875 30.140625 304.578125 C 30.089844 300.386719 30.128906 296.195312 30.109375 292.003906 C 30.054688 289.398438 30.261719 286.777344 30.015625 284.179688 C 26.1875 284.179688 22.355469 284.136719 18.527344 284.148438 C 18.484375 285.746094 18.535156 287.355469 18.351562 288.949219 C 18.277344 289.515625 18.292969 290.140625 17.96875 290.640625 C 16.890625 291.691406 15.273438 292.089844 13.816406 291.734375 C 11.871094 290.6875 10.296875 289.085938 8.882812 287.414062 C 7.363281 285.710938 5.804688 283.859375 5.300781 281.570312 C 5 280.183594 5.839844 278.839844 6.929688 278.0625 C 7.929688 277.34375 9.21875 277.332031 10.402344 277.335938 C 10.691406 277.398438 11.074219 277.261719 11.03125 276.902344 C 11.191406 273.332031 11.003906 269.746094 11.113281 266.183594 C 7.753906 265.828125 4.34375 266.15625 0.964844 266.03125 C 0.972656 263.800781 0.855469 261.570312 0.886719 259.347656 C 9.371094 259.484375 17.867188 259.167969 26.347656 259.507812 C 21.484375 254.128906 16.347656 249 11.367188 243.730469 C 11.402344 243.410156 11.464844 243.074219 11.761719 242.90625 M 60.074219 248.464844 C 58.480469 249.117188 57.707031 250.863281 57.476562 252.472656 C 57.023438 254.371094 57.859375 256.238281 58.65625 257.921875 C 58.960938 258.515625 59.167969 259.429688 60.023438 259.375 C 64.015625 259.535156 68.007812 259.167969 72.003906 259.117188 C 71.3125 257.960938 70.394531 256.972656 69.628906 255.871094 C 67.917969 253.5625 66.15625 251.226562 63.867188 249.457031 C 62.78125 248.738281 61.398438 247.824219 60.074219 248.464844 M 18.5625 266.175781 C 18.523438 269.855469 18.539062 273.539062 18.5625 277.21875 C 22.386719 277.296875 26.21875 277.261719 30.042969 277.21875 C 29.996094 273.503906 30.191406 269.785156 30.027344 266.074219 C 26.207031 266.132812 22.382812 266.054688 18.5625 266.175781 Z M 18.5625 266.175781 "/>
<path style=" stroke:none;fill-rule:nonzero;fill:rgb(25.098039%,42.352941%,61.568627%);fill-opacity:1;" d="M 112.011719 259.464844 C 125.488281 259.378906 138.972656 259.613281 152.449219 259.386719 C 159.074219 259.324219 165.699219 259.34375 172.324219 259.417969 C 179.027344 259.414062 185.726562 259.355469 192.429688 259.332031 C 199.046875 259.386719 205.667969 259.433594 212.285156 259.410156 C 219.582031 259.417969 226.878906 259.46875 234.179688 259.378906 C 241.90625 259.277344 249.632812 259.425781 257.363281 259.332031 C 262.875 259.324219 268.390625 259.4375 273.902344 259.414062 C 278.3125 259.410156 282.71875 259.402344 287.128906 259.460938 C 288.121094 259.484375 289.125 259.410156 290.117188 259.570312 C 290.148438 261.714844 290.023438 263.859375 289.949219 266.003906 C 287.921875 266.042969 285.890625 266 283.867188 266.125 C 283.507812 266.257812 283.679688 266.726562 283.625 267.015625 C 283.566406 270.109375 283.761719 273.207031 283.542969 276.300781 C 283.300781 278.523438 282.210938 280.625 280.445312 282.019531 C 278.523438 283.597656 276.109375 284.5 273.660156 284.804688 C 274.949219 286.503906 276.121094 288.289062 277.398438 290 C 280.140625 293.710938 283.363281 297.03125 286.636719 300.269531 C 286.632812 300.355469 286.625 300.519531 286.617188 300.605469 C 284.839844 301.96875 283.253906 303.566406 281.558594 305.03125 C 279.695312 304.324219 278.320312 302.820312 276.996094 301.394531 C 273.285156 297.132812 269.917969 292.574219 266.816406 287.847656 C 264.117188 283.851562 261.808594 279.609375 259.390625 275.4375 C 259.136719 274.945312 258.769531 274.457031 258.835938 273.875 C 260.691406 272.816406 262.328125 271.425781 264.078125 270.203125 C 264.351562 269.972656 264.859375 269.847656 265.003906 270.304688 C 266.023438 272.3125 267.246094 274.207031 268.339844 276.175781 C 268.820312 276.984375 269.453125 277.8125 270.355469 278.167969 C 271.726562 278.429688 273.21875 278.414062 274.515625 277.84375 C 275.464844 277.421875 276.039062 276.4375 276.089844 275.417969 C 276.324219 272.332031 276.175781 269.230469 276.265625 266.140625 C 272.25 265.976562 268.230469 266.109375 264.214844 266.113281 C 260.625 266.097656 257.035156 266.175781 253.445312 266.175781 C 253.207031 278.964844 253.472656 291.753906 253.351562 304.542969 C 250.925781 304.636719 248.5 304.660156 246.078125 304.675781 C 245.867188 302.253906 246.085938 299.804688 246.03125 297.375 C 246.074219 288.953125 246.003906 280.53125 246.019531 272.113281 C 245.96875 270.136719 246.101562 268.136719 245.960938 266.175781 C 239.914062 266.074219 233.863281 266.117188 227.816406 266.050781 C 225.359375 266.082031 222.894531 265.953125 220.453125 266.191406 C 220.507812 268.476562 220.613281 270.765625 220.453125 273.042969 C 221.753906 272.457031 222.914062 271.539062 224.328125 271.214844 C 228.449219 270.152344 233.175781 271.390625 236.09375 274.535156 C 237.898438 276.363281 239.183594 278.730469 239.539062 281.292969 C 239.953125 283.554688 239.328125 285.828125 238.578125 287.949219 C 237.445312 290.847656 235.585938 293.386719 233.605469 295.757812 C 232.339844 297.195312 231.199219 298.765625 229.71875 299.992188 C 227.546875 298.335938 226.210938 297.175781 224.082031 295.4375 C 224.925781 294.523438 225.8125 293.648438 226.179688 293.210938 C 227.421875 291.96875 228.269531 290.578125 229.355469 289.195312 C 230.664062 287.382812 231.84375 285.339844 232.070312 283.074219 C 231.976562 281.605469 231.921875 279.929688 230.789062 278.839844 C 229.46875 277.390625 227.175781 277.035156 225.453125 277.933594 C 223.554688 278.839844 222.253906 280.621094 221.285156 282.433594 C 220.328125 284.285156 220.496094 286.421875 220.484375 288.433594 C 220.535156 293.820312 220.492188 299.210938 220.621094 304.59375 C 218.105469 304.761719 215.578125 304.730469 213.054688 304.730469 C 213.03125 301.253906 213.003906 297.777344 213.078125 294.300781 C 211.808594 294.738281 210.597656 295.414062 209.246094 295.554688 C 206.707031 295.804688 204.078125 295.671875 201.6875 294.699219 C 197.832031 293.238281 195.164062 289.570312 194.125 285.667969 C 192.972656 281.132812 194.679688 276.054688 198.285156 273.09375 C 200.855469 270.980469 204.257812 269.816406 207.585938 270.226562 C 209.429688 270.367188 211.242188 270.839844 212.894531 271.679688 C 212.933594 274.023438 212.925781 276.367188 212.894531 278.710938 C 211.480469 277.902344 209.992188 277.226562 208.457031 276.691406 C 206.378906 276.035156 203.996094 277.144531 202.929688 279.003906 C 201.289062 281.5 201.246094 284.921875 202.84375 287.445312 C 204.582031 289.679688 208.078125 289.890625 210.253906 288.175781 C 211.363281 287.234375 212.59375 286.191406 212.976562 284.730469 C 213.222656 282.316406 213.15625 279.980469 213.144531 277.535156 C 213.160156 275.660156 213.164062 273.757812 213.144531 271.898438 C 213.089844 269.964844 213.089844 268.015625 213.03125 266.078125 C 204.527344 266.144531 196.019531 265.960938 187.515625 266.273438 C 187.628906 269.394531 187.65625 272.527344 187.464844 275.644531 C 187.34375 277.679688 186.667969 279.722656 185.207031 281.1875 C 183.488281 282.882812 181.265625 284.078125 178.898438 284.542969 C 178.445312 284.621094 178.007812 284.734375 177.59375 284.925781 C 179.03125 286.753906 180.28125 288.714844 181.671875 290.578125 C 183.234375 292.71875 185.132812 294.574219 186.828125 296.609375 C 187.914062 297.902344 189.175781 299.035156 190.375 300.222656 L 190.375 300.605469 C 188.738281 302.046875 187.15625 303.5625 185.515625 305.003906 C 184.007812 304.601562 182.921875 303.398438 181.808594 302.382812 C 178 298.378906 174.785156 293.863281 171.660156 289.316406 C 168.335938 284.441406 165.394531 279.316406 162.558594 274.148438 C 164.515625 272.6875 166.484375 271.234375 168.464844 269.820312 C 169.746094 271.875 170.929688 274 172.136719 276.101562 C 172.539062 276.785156 173.046875 277.421875 173.699219 277.878906 C 174.394531 278.386719 175.304688 278.242188 176.113281 278.289062 C 177.253906 278.242188 178.652344 278.148438 179.351562 277.101562 C 180.175781 275.671875 180.019531 273.960938 180.113281 272.375 C 180.1875 270.3125 180.089844 268.246094 180.164062 266.183594 C 177.804688 265.957031 175.429688 266.125 173.0625 266.085938 C 167.980469 266.125 162.894531 266.089844 157.8125 266.21875 C 157.792969 273.707031 157.773438 281.199219 157.789062 288.6875 C 157.753906 293.957031 157.863281 299.234375 157.726562 304.5 C 155.328125 304.863281 152.804688 304.667969 150.355469 304.742188 C 150.363281 297.691406 150.4375 290.632812 150.335938 283.578125 C 146.875 283.566406 143.421875 283.617188 139.96875 283.59375 C 138.828125 283.003906 138.375 282.140625 137.9375 281.058594 C 137.378906 281.871094 136.300781 283.289062 135.433594 283.882812 C 134.082031 284.777344 132.484375 285.140625 131.007812 285.761719 C 131.972656 287.578125 133.289062 289.1875 134.445312 290.886719 C 136.992188 294.304688 139.839844 297.496094 142.96875 300.386719 C 141.457031 301.839844 139.730469 303.058594 138.160156 304.457031 C 137.839844 304.835938 137.324219 304.757812 136.890625 304.816406 C 134.277344 303.289062 132.621094 300.664062 130.886719 298.273438 C 126.996094 292.320312 122.660156 286.65625 119.183594 280.441406 C 118.195312 278.636719 117.085938 276.886719 116.285156 274.984375 C 118.386719 273.800781 120.257812 272.253906 122.351562 271.054688 C 123.671875 273.417969 124.652344 275.996094 126.226562 278.226562 C 127.109375 279.296875 128.597656 279.117188 129.824219 278.988281 C 130.242188 278.9375 130.898438 278.804688 130.832031 278.246094 C 130.917969 275.359375 130.867188 272.472656 130.945312 269.582031 C 130.929688 268.453125 131.027344 267.304688 130.867188 266.191406 C 129.191406 265.957031 127.4375 266.117188 125.734375 266.058594 C 121.144531 266.042969 116.554688 266.105469 111.964844 266.035156 C 111.949219 263.898438 111.980469 261.753906 111.851562 259.621094 L 112.011719 259.464844 M 138.429688 266.097656 C 138.277344 269.710938 138.335938 273.324219 138.375 276.9375 C 142.328125 276.957031 146.277344 276.9375 150.230469 276.960938 C 150.441406 273.476562 150.347656 269.972656 150.359375 266.476562 C 150.46875 266.023438 149.914062 266.117188 149.664062 266.101562 C 145.917969 265.992188 142.175781 266.074219 138.429688 266.097656 Z M 138.429688 266.097656 "/>
<path style=" stroke:none;fill-rule:nonzero;fill:rgb(10.588235%,72.54902%,61.568627%);fill-opacity:1;" d="M 156.378906 92.949219 C 159.472656 90.648438 161.929688 87.589844 164.0625 84.417969 C 164.117188 84.300781 164.566406 83.472656 164.515625 83.511719 C 164.835938 84.476562 165.375 86.195312 165.308594 87.238281 C 165.21875 88.957031 165.03125 90.683594 164.621094 92.359375 C 164.226562 93.910156 164.371094 95.570312 163.6875 97.046875 C 162.847656 99.800781 161.453125 102.371094 159.667969 104.613281 C 158.691406 106.15625 157.613281 107.648438 156.277344 108.898438 C 155.386719 109.632812 154.410156 110.261719 153.535156 111.023438 C 152.417969 112.019531 150.917969 112.410156 149.757812 113.351562 C 147.496094 114.777344 145.066406 115.933594 142.570312 116.886719 C 140.265625 117.691406 140.828125 117.351562 138.292969 117.75 C 137.476562 117.804688 135.046875 118.105469 134.238281 118.1875 C 133.148438 118.238281 132.820312 118.257812 131.613281 118.3125 L 130.390625 118.324219 C 129.867188 118.324219 129.28125 118.328125 128.777344 118.351562 C 125.609375 118.242188 119.25 118.445312 114.554688 119.199219 C 106.777344 120.359375 99.066406 123.476562 93.421875 129.09375 C 87.34375 134.90625 84.21875 143.234375 83.460938 151.492188 C 83.3125 154.121094 83.3125 156.761719 83.4375 159.390625 C 84.105469 167.640625 86.796875 176.039062 92.53125 182.179688 C 96.457031 186.53125 101.628906 189.664062 107.179688 191.472656 C 112.179688 193.058594 117.445312 193.636719 122.675781 193.679688 C 126.171875 193.621094 129.640625 193.082031 133.089844 192.554688 C 133.542969 192.398438 134.441406 192.519531 134.339844 191.800781 C 134.535156 185.6875 134.40625 179.5625 134.414062 173.441406 C 134.378906 170.980469 134.480469 168.515625 134.292969 166.0625 L 134.273438 165.914062 C 129.898438 165.855469 125.519531 165.890625 121.144531 165.890625 C 119.378906 165.933594 117.605469 165.804688 115.84375 165.976562 C 115.789062 165.980469 115.679688 165.992188 115.625 165.996094 C 115.6875 162.355469 115.613281 158.714844 115.613281 155.070312 C 115.585938 150.921875 115.671875 146.765625 115.582031 142.617188 C 124.21875 142.5625 132.859375 142.683594 141.5 142.632812 C 148.316406 142.691406 155.140625 142.523438 161.957031 142.695312 C 162.011719 155.917969 161.941406 169.140625 161.953125 182.359375 C 161.898438 191.304688 162.105469 200.246094 161.914062 209.1875 C 156.289062 210.746094 150.65625 212.308594 144.90625 213.324219 C 138.242188 214.636719 131.476562 215.410156 124.6875 215.644531 C 119.015625 215.957031 113.328125 215.605469 107.675781 215.082031 C 96.980469 213.875 86.269531 210.929688 77.199219 204.964844 C 71.617188 201.324219 66.75 196.570312 63.035156 191.027344 C 58.960938 185.113281 56.308594 178.292969 54.824219 171.289062 C 53.035156 162.339844 52.890625 153.042969 54.699219 144.085938 C 54.75 143.859375 54.820312 143.644531 54.914062 143.433594 C 55.273438 142.761719 55.386719 142.007812 55.40625 141.253906 C 56.25 137.410156 57.707031 133.703125 59.355469 130.132812 L 59.535156 130.0625 C 59.964844 129.976562 60.023438 129.496094 60.015625 129.136719 C 59.996094 128.765625 60.199219 128.441406 60.351562 128.125 C 64.949219 119.546875 71.863281 112.257812 80.089844 107.089844 C 88.324219 102 97.632812 98.820312 107.132812 97.152344 C 110.507812 96.636719 113.886719 96.074219 117.308594 96.015625 C 122.324219 95.882812 127.347656 95.925781 132.363281 96.148438 C 134.484375 96.40625 136.625 96.382812 138.753906 96.628906 C 138.285156 96.671875 140.003906 96.566406 139.542969 96.632812 C 141.941406 96.648438 142.160156 96.660156 144.558594 96.605469 C 145.664062 96.476562 147.441406 96.402344 148.359375 96.230469 C 148.976562 96.078125 149.472656 95.945312 150.023438 95.785156 C 152.273438 95.1875 154.488281 94.328125 156.378906 92.949219 Z M 156.378906 92.949219 "/>
<path style=" stroke:none;fill-rule:nonzero;fill:rgb(75.686275%,33.72549%,61.176471%);fill-opacity:1;" d="M 227.152344 95.261719 C 233.328125 94.761719 239.5625 95.230469 245.652344 96.320312 C 255.515625 98.179688 265.054688 102.445312 272.492188 109.269531 C 275.875 112.300781 278.875 115.753906 281.292969 119.605469 C 284.601562 124.625 287.011719 130.203125 288.605469 135.992188 C 290.164062 141.789062 291.105469 147.773438 291.097656 153.78125 C 291.164062 163.914062 289.53125 174.164062 285.464844 183.484375 C 281.644531 192.300781 275.449219 200.109375 267.566406 205.613281 C 258.421875 212.101562 247.328125 215.476562 236.214844 216.277344 C 229.839844 216.511719 223.390625 216.464844 217.117188 215.179688 C 207.023438 213.113281 197.261719 208.507812 189.917969 201.171875 C 183.363281 194.910156 178.714844 186.820312 175.914062 178.238281 C 174.125 172.691406 173.035156 166.910156 172.710938 161.09375 C 172.371094 157.390625 172.574219 153.675781 172.910156 149.988281 C 173.8125 139.363281 177.136719 128.84375 183.125 119.980469 C 188.109375 112.332031 195.164062 106.097656 203.257812 101.914062 C 210.640625 98.042969 218.882812 95.988281 227.152344 95.261719 M 228.648438 117.160156 C 224.261719 117.53125 220.042969 119.25 216.46875 121.800781 C 213.761719 123.820312 211.453125 126.371094 209.65625 129.234375 C 206.660156 133.898438 204.808594 139.21875 203.78125 144.648438 C 202.890625 150.003906 202.21875 155.476562 202.863281 160.902344 C 203.484375 167.675781 205 174.484375 208.34375 180.464844 C 210.464844 184.410156 213.582031 187.789062 217.238281 190.359375 C 220.585938 192.679688 224.554688 193.972656 228.582031 194.421875 C 234.347656 195.253906 240.351562 193.941406 245.375 191.027344 C 249.054688 188.773438 252.140625 185.59375 254.351562 181.890625 C 256.742188 178.046875 258.332031 173.75 259.363281 169.355469 C 260.890625 163.027344 261.113281 156.453125 260.65625 149.980469 C 260.203125 144.714844 258.957031 139.503906 256.867188 134.644531 C 255.148438 130.691406 252.722656 127.023438 249.617188 124.023438 C 246.226562 120.628906 241.765625 118.390625 237.078125 117.445312 C 234.300781 116.984375 231.457031 116.90625 228.648438 117.160156 Z M 228.648438 117.160156 "/>
<path style=" stroke:none;fill-rule:nonzero;fill:rgb(94.509804%,43.921569%,14.117647%);fill-opacity:1;" d="M 285.199219 97.046875 C 295.179688 96.871094 305.160156 96.984375 315.140625 97.003906 C 315.554688 97.074219 316.226562 96.90625 316.382812 97.441406 C 317.214844 99.359375 317.714844 101.394531 318.335938 103.386719 C 321.625 114.148438 324.859375 124.921875 328.105469 135.699219 C 332.347656 149.648438 336.5625 163.617188 340.035156 177.785156 C 340.726562 180.589844 341.136719 183.460938 342.113281 186.1875 C 342.203125 186.230469 342.375 186.320312 342.460938 186.363281 C 343.6875 180.855469 345.011719 175.367188 346.53125 169.9375 C 349.257812 159.46875 352.421875 149.128906 355.703125 138.824219 C 359.992188 125.03125 364.308594 111.25 368.703125 97.488281 C 368.796875 96.898438 369.441406 97.023438 369.882812 97.007812 C 379.394531 96.980469 388.90625 96.921875 398.414062 97.019531 C 398.816406 96.929688 399.058594 97.289062 398.859375 97.648438 C 395.578125 107.164062 392.226562 116.660156 388.867188 126.144531 C 381.761719 146.316406 374.636719 166.484375 367.535156 186.65625 C 364.238281 195.714844 361.167969 204.859375 357.789062 213.886719 C 357.671875 214.554688 356.90625 214.558594 356.378906 214.550781 C 350.183594 214.609375 343.992188 214.558594 337.796875 214.601562 C 333.890625 214.59375 329.984375 214.6875 326.082031 214.523438 C 325.515625 214.40625 324.613281 214.570312 324.464844 213.824219 C 323.046875 209.847656 321.738281 205.835938 320.410156 201.828125 C 313.527344 181.632812 306.855469 161.359375 300.003906 141.148438 C 296.675781 131.15625 293.285156 121.183594 289.957031 111.191406 C 288.386719 106.46875 286.851562 101.738281 285.199219 97.046875 Z M 285.199219 97.046875 "/>
</g>
</svg>
