<?xml version="1.0" encoding="UTF-8" standalone="no"?>
<svg
   width="1172.0612pt"
   height="321.10223pt"
   viewBox="0 0 1172.0612 321.10223"
   version="1.1"
   id="svg115"
   sodipodi:docname="niclogo(1).svg"
   inkscape:version="1.1.1 (3bf5ae0d25, 2021-09-20)"
   xmlns:inkscape="http://www.inkscape.org/namespaces/inkscape"
   xmlns:sodipodi="http://sodipodi.sourceforge.net/DTD/sodipodi-0.dtd"
   xmlns="http://www.w3.org/2000/svg"
   xmlns:svg="http://www.w3.org/2000/svg">
  <defs
     id="defs119" />
  <sodipodi:namedview
     id="namedview117"
     pagecolor="#ffffff"
     bordercolor="#666666"
     borderopacity="1.0"
     inkscape:pageshadow="2"
     inkscape:pageopacity="0.0"
     inkscape:pagecheckerboard="0"
     inkscape:document-units="pt"
     showgrid="false"
     inkscape:zoom="0.82443182"
     inkscape:cx="923.05996"
     inkscape:cy="213.48036"
     inkscape:window-width="1920"
     inkscape:window-height="986"
     inkscape:window-x="-11"
     inkscape:window-y="-11"
     inkscape:window-maximized="1"
     inkscape:current-layer="svg115" />
  <g
     id="#2384c5ff"
     transform="translate(-73.986284,-71.456857)">
    <path
       fill="#2384c5"
       opacity="1"
       d="m 1007.54,82.72 c 1.17,-10.08 14.86,-14.61 22.4,-8.49 0.88,2.29 0.45,4.82 0.66,7.21 -3.09,-0.93 -6.24,-1.64 -9.48,-1.55 -2.28,1.75 -4.81,4.02 -4.14,7.24 1.56,4.7 5.86,7.64 8.96,11.27 1.85,0.08 3.72,0.13 5.6,0.19 -0.05,3.35 0.04,6.7 -0.26,10.04 -1.95,-0.08 -3.88,-0.11 -5.8,-0.11 0.03,4.68 0.08,9.37 -0.06,14.05 -7.65,-0.2 -15.31,-0.07 -22.96,-0.04 2.2,3.78 4.96,10.16 10.46,8.2 4.35,-1.55 9.08,-2.47 13.66,-1.35 3.29,1.45 3.75,5.43 4,8.59 -0.28,4.07 -1.32,8.34 -4.17,11.4 -2.27,2.64 -5.44,4.16 -8.41,5.83 3.62,3.01 8.15,4.63 11.81,7.59 -2.44,2.51 -4.78,5.11 -6.92,7.87 -6.26,-3.77 -12.39,-7.91 -17.71,-12.95 -4.21,-0.55 -9.21,0 -12.47,-3.33 -2.56,-1.9 -2.39,-5.36 -2.09,-8.19 1.32,-3.11 4.51,-4.44 7.67,-4.83 5.03,0.51 8.34,4.36 11.72,7.58 5.32,0.33 10.43,-8.02 6.08,-12.21 -3.12,0.32 -5.81,2.54 -9.03,2.24 -7.52,-0.34 -12.97,-6.77 -16.08,-13.04 -2.12,-3.82 -1.18,-9.36 3.18,-11.12 4.91,-0.64 9.91,-0.16 14.86,-0.24 1.61,-0.16 3.5,0.47 4.94,-0.55 0.1,-1.88 0,-3.76 -0.07,-5.63 -11.08,0.3 -22.18,-0.11 -33.26,0.19 -0.3,16.29 -0.09,32.61 -0.1,48.91 -4.18,0.02 -8.35,0 -12.52,0.05 -0.02,-16.34 0,-32.68 -0.01,-49.02 -3.72,-0.06 -7.44,-0.06 -11.15,0.1 0.31,16.29 0.08,32.6 0.07,48.9 -3.96,0 -7.93,0 -11.88,-0.04 -0.03,-7.37 -0.13,-14.74 0.04,-22.1 -1.86,0.33 -3.75,0.51 -5.62,0.5 0.58,5.7 -0.56,12.32 -5.87,15.53 -7.12,4.05 -17.04,3.86 -23.37,-1.67 -6.18,-5.27 -11.63,-12.04 -13.75,-19.96 2.9,-1.32 5.92,-2.38 8.76,-3.84 3.03,4.63 4.51,10.29 8.62,14.18 2.74,2.3 6.29,4.35 10,3.79 4.76,-1.56 6.02,-8.64 2.14,-11.78 -2.68,-2.76 -6.72,-2.11 -10.17,-2.11 -1.11,-2.13 -2.09,-4.33 -3.09,-6.5 3.75,-1.96 8.38,-2.61 10.83,-6.46 0.17,-2.68 -0.12,-5.46 -2.4,-7.21 -4.97,-0.58 -8.92,2.67 -11.93,6.19 -1.83,-3.31 -3.08,-6.89 -4.83,-10.23 6.68,-6.29 17.8,-7.96 25.63,-2.85 6.53,4.29 7.54,15.02 1.49,20.12 2.41,1.34 4.67,3.12 7.38,3.85 2.01,-0.3 4.43,-0.47 5.86,-2.11 0.59,-5.35 -0.04,-10.77 0.39,-16.14 -2.41,-0.1 -4.8,-0.17 -7.19,-0.37 0.03,-3.31 0.03,-6.63 0.12,-9.94 25.94,0.27 51.9,0.22 77.83,0.02 -3.9,-4.43 -9.72,-9 -8.37,-15.67 z"
       id="path2" />
    <path
       fill="#2384c5"
       opacity="1"
       d="m 1078.03,74.18 c 7.73,-3.53 17.05,-2.67 24.33,1.56 8.03,4.55 13.31,12.82 16.5,21.25 0.32,20.15 -0.08,40.33 0.2,60.49 -4.21,0.06 -8.41,0.06 -12.61,-0.02 0.16,-16.31 0.05,-32.63 0.05,-48.94 -3.65,-0.04 -7.3,-0.02 -10.93,-0.02 -0.13,16.33 -0.11,32.66 -0.01,48.99 -4.03,0.04 -8.05,0.04 -12.06,-0.03 -0.02,-7.79 0.08,-15.59 -0.04,-23.39 0.32,-2.75 -3.05,-1.27 -4.53,-1.24 -2.44,-3.04 -4.3,-6.48 -5.96,-9.98 3.51,0.21 7.03,0.28 10.55,0.07 0.01,-4.81 0,-9.61 -0.06,-14.41 -4.29,0.06 -8.59,-0.26 -12.85,0.1 -1.03,6.77 1.95,14.6 -2.63,20.47 -1.68,2.51 -4.73,3.45 -7.41,4.44 4.84,5.74 9.63,11.53 14.33,17.39 -3.21,2.44 -6.45,4.83 -9.64,7.29 -7.77,-11.67 -16.41,-22.76 -23.76,-34.72 2.86,-2.19 5.85,-4.22 8.81,-6.3 1.25,2.72 2.93,5.29 5.56,6.88 0.7,-0.62 1.41,-1.24 2.14,-1.86 -0.04,-4.6 0.07,-9.19 -0.12,-13.79 -3.81,0.1 -7.6,0.11 -11.39,0.1 0.01,-3.35 0.02,-6.69 0.02,-10.03 9.02,0.01 18.05,0.2 27.07,-0.1 -3.45,-4.23 -4.38,-9.87 -3.3,-15.13 1.21,-3.91 4.14,-7.17 7.74,-9.07 m 5.43,8.29 c -4.78,2.76 -4.65,10.41 -0.27,13.48 4.59,3.36 10.5,2.48 15.83,2.6 2.72,-0.09 5.75,0.65 8.09,-1.17 -2.16,-4.65 -4.87,-9.32 -9.27,-12.18 -4.1,-2.76 -9.57,-5.25 -14.38,-2.73 z"
       id="path4" />
    <path
       fill="#2384c5"
       opacity="1"
       d="m 591.82,121.78 c 25.79,-17.86 56.88,-27.8 88.21,-28.63 19.79,-0.43 39.61,0.03 59.41,-0.25 0.13,30.01 0.03,60.03 0.05,90.04 -66.56,0.15 -133.12,0.06 -199.68,0.02 11.17,-24.69 29.74,-45.85 52.01,-61.18 z"
       id="path6" />
    <path
       fill="#2384c5"
       opacity="1"
       d="m 74,98 c 16.01,0.22 32.06,-0.52 48.04,0.55 24.34,-0.21 48.7,0.26 73.04,-0.24 6.57,9.81 12.14,20.24 18.34,30.28 10.76,18.16 21.65,36.24 32.32,54.46 C 188.51,182.98 131.28,182.98 74.05,183.04 73.94,154.69 74.04,126.35 74,98 Z"
       id="path8" />
    <path
       fill="#2384c5"
       opacity="1"
       d="m 276.89,98.1 c 33.03,-0.23 66.07,-0.04 99.11,-0.1 -0.09,28.38 0.18,56.77 -0.14,85.14 -32.9,-0.24 -65.81,-0.21 -98.71,-0.02 -0.41,-28.34 0.08,-56.68 -0.26,-85.02 z"
       id="path10" />
    <path
       fill="#2384c5"
       opacity="1"
       d="m 404,98 c 34.53,0 69.06,-0.01 103.59,0.01 -0.22,28.3 -0.02,56.61 -0.1,84.91 -34.48,0.22 -68.96,-0.03 -103.44,0.12 C 403.94,154.69 404.04,126.35 404,98 Z"
       id="path12" />
    <path
       fill="#2384c5"
       opacity="1"
       d="m 793.48,98.55 c 32.35,-0.08 64.7,0.02 97.05,-0.05 -0.04,3.33 -0.08,6.66 -0.05,9.99 -2.35,0 -4.69,0.01 -7.02,0.09 0.07,16.34 0.07,32.67 0,49.01 -3.99,-0.12 -7.98,-0.08 -11.96,-0.11 -0.01,-9.34 0.06,-18.67 -0.05,-28.01 -4.66,0.08 -9.32,0.06 -13.97,0 0.13,3.56 0.22,7.28 -1.63,10.47 -1.72,-0.05 -3.78,0.75 -5.15,-0.66 -4.07,-3.61 -7.93,-7.59 -10.73,-12.28 -1.11,-1.66 -1.24,-3.76 -0.79,-5.67 1.37,-2.35 4.4,-2.32 6.78,-2.38 8.52,0.04 17.04,0.08 25.56,-0.03 0.01,-3.47 -0.01,-6.94 -0.04,-10.41 -13.33,-0.03 -26.65,-0.04 -39.97,0.02 -0.09,6.87 0.16,13.75 -0.1,20.61 -0.65,5.11 -6.1,7.03 -10.43,8.04 -3.33,-2.86 -6.8,-5.56 -9.97,-8.6 2.73,0.01 5.57,0 8.05,-1.35 -0.05,-6.21 -0.25,-12.42 0.08,-18.62 -4.38,-0.18 -8.77,-0.12 -13.15,-0.04 0.01,8.42 0.03,16.84 -0.02,25.26 7.54,6.92 15.76,13.06 23.42,19.85 2.07,1.82 3.46,4.49 3.23,7.3 0.23,4.73 -4.47,7.67 -8.41,8.98 -1.68,-0.05 -4.02,0.57 -5.05,-1.14 -1.46,-1.86 -2.68,-3.89 -3.94,-5.89 2.55,0.57 5.06,-0.23 6.19,-2.7 -9.18,-7.91 -18.69,-15.44 -27.98,-23.23 0.16,-12.82 0.06,-25.64 0.05,-38.45 z"
       id="path14" />
    <path
       fill="#2384c5"
       opacity="1"
       d="m 792.5,178.48 c 4.78,0.08 9.55,-0.03 14.33,0.07 7.84,14.26 15.98,28.36 24.34,42.32 -0.4,-14.1 0,-28.21 -0.27,-42.31 4.34,-0.01 8.69,-0.02 13.04,-0.14 0.05,21.07 0.21,42.15 -0.08,63.22 -4.47,-0.17 -8.94,-0.22 -13.4,-0.03 -8.84,-14.36 -16.59,-29.4 -25.71,-43.58 0.67,14.47 -0.08,28.97 0.31,43.45 -4.2,0.07 -8.41,0.04 -12.61,-0.02 0.16,-20.99 0.05,-41.99 0.05,-62.98 z"
       id="path16" />
    <path
       fill="#2384c5"
       opacity="1"
       d="m 931.48,178.55 c 4.35,-0.05 8.7,-0.05 13.05,-0.04 -0.01,3.83 0.01,7.67 -0.15,11.5 -4.28,-0.02 -8.55,-0.01 -12.82,-0.02 -0.07,-3.81 -0.08,-7.62 -0.08,-11.44 z"
       id="path18" />
    <path
       fill="#2384c5"
       opacity="1"
       d="m 1106.5,178.48 c 4.32,0.05 8.64,0.04 12.97,0.01 0.09,21.01 -0.03,42.02 0.07,63.03 -4.37,0 -8.74,0.02 -13.1,-0.07 0.21,-20.99 0.05,-41.98 0.06,-62.97 z"
       id="path20" />
    <path
       fill="#2384c5"
       opacity="1"
       d="m 903.48,182.55 c 4.15,0.01 8.3,-0.01 12.46,-0.13 0.09,4.36 0.06,8.71 0.06,13.07 2.47,0.02 4.95,-0.03 7.44,-0.06 0.09,3.05 0.1,6.1 0.02,9.15 -2.5,-0.05 -4.99,-0.1 -7.48,-0.04 0.14,8.83 -0.19,17.67 0.16,26.49 1.4,2.45 5,1.24 7.35,1.51 -0.04,3.15 0.02,6.3 0.02,9.45 -5.42,-0.32 -11.16,0.99 -16.27,-1.31 -2.51,-1.15 -3.68,-4.13 -3.78,-6.73 0.04,-9.82 0.11,-19.64 -0.01,-29.46 -2.13,-0.01 -4.24,-0.01 -6.35,-0.02 -0.22,-2.99 -0.2,-5.98 0.03,-8.96 2.12,0 4.26,0.01 6.4,-0.02 0.01,-4.31 -0.01,-8.63 -0.05,-12.94 z"
       id="path22" />
    <path
       fill="#2384c5"
       opacity="1"
       d="m 970.47,193.58 c 6.96,-0.69 14.62,0.2 20.15,4.86 9.83,9.36 10.71,26.19 2.63,36.9 -4.65,6.15 -12.85,8.25 -20.23,7.68 -6.52,0.13 -13.38,-2.44 -17.23,-7.88 -6.93,-9.39 -7.08,-23.2 -0.5,-32.83 3.38,-5.1 9.2,-8.04 15.18,-8.73 m -2.39,12.6 c -3.57,2.99 -4.03,7.92 -4.66,12.21 0.66,3.46 0.73,7.25 2.97,10.18 3.38,4.89 11.15,5.33 15.28,1.14 2.97,-3.09 3.61,-7.58 3.84,-11.69 -0.33,-4.85 -1.49,-10.97 -6.63,-12.93 -3.47,-1.81 -7.67,-1.01 -10.8,1.09 z"
       id="path24" />
    <path
       fill="#2384c5"
       opacity="1"
       d="m 863.77,194.85 c 7.18,-1.59 15,-1.37 21.87,1.47 4.21,1.72 6.86,6.24 6.83,10.73 0.1,9.32 -0.04,18.65 0.02,27.98 -0.03,2.45 2.09,4.16 3.08,6.24 -4.85,0.21 -9.81,0.69 -14.6,-0.16 -0.64,-1.45 -0.38,-3.05 -0.49,-4.58 -3.98,3.61 -8.9,6.87 -14.52,6.53 -6.43,0.47 -13.49,-3.34 -14.84,-10 -0.23,-4.11 -0.75,-8.68 1.73,-12.26 2.83,-4.76 8.6,-6.12 13.65,-7.09 4.12,-0.82 8.8,-0.26 12.41,-2.78 2.31,-1.97 0.53,-5.5 -2.02,-6.19 -3.08,-0.99 -6.72,-1.33 -9.54,0.5 -1.84,1.14 -2.23,3.42 -3.02,5.26 -4.01,-0.04 -8.01,0.06 -12.01,-0.09 -0.15,-7.03 4.41,-13.96 11.45,-15.56 m 2.52,28.44 c -1.9,0.84 -2.35,3.07 -3.17,4.77 0.41,1.27 0.8,2.55 1.19,3.84 3.71,2.63 9.26,2.06 12.57,-1.02 3.26,-2.74 2.94,-7.53 3.2,-11.39 -4.38,2.03 -9.42,1.79 -13.79,3.8 z"
       id="path26" />
    <path
       fill="#2384c5"
       opacity="1"
       d="m 1018.5,200.17 c 2.67,-2.66 5.54,-5.45 9.45,-6.03 4.67,-0.36 9.74,-0.61 13.88,1.99 4.41,2.16 6.6,7.15 6.69,11.87 0,11.16 -0.12,22.32 0.02,33.48 -4.35,0.06 -8.7,0.04 -13.04,-0.01 -0.06,-10.35 0.15,-20.7 -0.09,-31.04 -0.23,-6.66 -9.74,-7.79 -13.58,-3.58 -3.06,2.86 -2.98,7.28 -3.31,11.13 -0.07,7.84 -0.05,15.67 0.01,23.51 -4.18,0.02 -8.35,0 -12.52,0.05 0.01,-15.55 -0.06,-31.09 0.04,-46.63 4.16,0.1 8.32,0.07 12.48,0.17 -0.03,1.69 -0.06,3.39 -0.03,5.09 z"
       id="path28" />
    <path
       fill="#2384c5"
       opacity="1"
       d="m 1066.39,195.53 c 6.96,-2.36 14.82,-2.15 21.81,0.06 4.63,1.25 8.67,5.32 8.75,10.3 0.16,9.39 -0.03,18.78 0.06,28.17 -0.1,2.74 1.91,4.85 3.03,7.18 -4.57,0.51 -9.17,0.19 -13.74,0.31 -0.3,-0.39 -0.88,-1.17 -1.18,-1.56 0,-0.89 0,-2.67 0,-3.56 -4.2,4.26 -10.03,7.28 -16.14,6.6 -6.21,-0.05 -12.78,-4.6 -13.38,-11.09 -0.34,-3.87 -0.29,-8.06 2.01,-11.38 2.12,-3.75 6.52,-5.16 10.43,-6.22 4.77,-1.32 9.95,-0.8 14.57,-2.7 2.43,-1.28 2.35,-4.79 0.2,-6.28 -3.44,-1.99 -8.01,-1.96 -11.38,0.15 -1.3,1.4 -1.89,3.29 -2.74,4.96 -3.99,-0.03 -7.98,0.03 -11.95,-0.01 0.25,-6.25 3.49,-12.71 9.65,-14.93 m 4.77,27.61 c -3.49,1.43 -4.16,6.69 -1.5,9.18 3.98,2.49 9.44,1.13 12.68,-2.01 2.25,-3.04 2.32,-6.99 2.26,-10.61 -4.39,1.52 -9.17,1.6 -13.44,3.44 z"
       id="path30" />
    <path
       fill="#2384c5"
       opacity="1"
       d="m 74.09,194.36 c 29.29,0.37 58.59,0.05 87.88,0.16 30.35,-0.08 60.71,0.15 91.07,-0.12 6.71,10.53 13.09,21.27 19.63,31.9 2.09,3.36 3.91,6.91 6.56,9.88 -0.68,-13.88 -1.75,-27.73 -2.36,-41.61 33.02,-0.19 66.05,0.12 99.07,-0.15 0.14,14.67 0.02,29.35 0.06,44.02 -100.67,0.07 -201.34,0.11 -302.01,-0.02 0.09,-14.69 -0.11,-29.37 0.1,-44.06 z"
       id="path32" />
    <path
       fill="#2384c5"
       opacity="1"
       d="m 404.09,194.37 c 34.46,0.34 68.93,0.08 103.39,0.12 -0.01,14.7 0.12,29.4 -0.06,44.09 -34.48,-0.26 -68.96,0.07 -103.43,-0.16 0.09,-14.69 -0.1,-29.37 0.1,-44.05 z"
       id="path34" />
    <path
       fill="#2384c5"
       opacity="1"
       d="m 532.99,199.99 c 0.85,-2.03 0.71,-6.01 3.89,-5.44 38.22,0 76.44,-0.16 114.65,0.07 -8.6,7.97 -16.01,17.72 -18.75,29.32 -1.61,4.71 -1.7,9.7 -2.45,14.57 -34.79,-0.07 -69.58,0.03 -104.37,-0.05 1.02,-13.02 3.03,-26 7.03,-38.47 z"
       id="path36" />
    <path
       fill="#2384c5"
       opacity="1"
       d="m 931.48,194.98 c 4.33,0.02 8.67,0.01 13.02,0.07 -0.02,15.48 -0.05,30.96 0.03,46.44 -4.35,0.05 -8.69,0.03 -13.03,-0.03 0,-15.49 0.05,-30.98 -0.02,-46.48 z"
       id="path38" />
    <path
       fill="#2384c5"
       opacity="1"
       d="m 74,250 c 99.96,0 199.92,0 299.89,0 0.79,7.29 0.89,14.64 1.51,21.95 -0.07,4.59 1.05,9.12 0.43,13.71 -60.42,-0.42 -120.87,0.16 -181.28,-0.29 -6.72,-10.4 -12.62,-21.37 -19.1,-31.92 -0.29,-0.16 -0.88,-0.49 -1.17,-0.65 1.4,10.87 1.45,21.88 2.76,32.77 -34.31,-0.05 -68.62,-0.15 -102.93,0.05 C 73.86,273.75 74.08,261.87 74,250 Z"
       id="path40" />
    <path
       fill="#2384c5"
       opacity="1"
       d="m 404,250 c 34.53,0.01 69.06,-0.01 103.59,0.01 -0.19,11.82 -0.1,23.65 -0.03,35.47 -34.49,0.15 -68.99,-0.09 -103.48,0.12 C 403.9,273.73 404.06,261.87 404,250 Z"
       id="path42" />
    <path
       fill="#2384c5"
       opacity="1"
       d="m 526.32,250.06 c 35.12,-0.08 70.23,-0.13 105.34,0.02 1.48,9.43 5.57,18.38 11.46,25.87 2.63,3.48 6.06,6.24 8.95,9.5 -39.88,0.26 -79.77,-0.18 -119.64,0.23 -3.71,-11.52 -5.5,-23.56 -6.11,-35.62 z"
       id="path44" />
    <path
       fill="#2384c5"
       opacity="1"
       d="m 872.57,254.57 c 4.77,-4.29 11.61,-3.08 17.47,-2.92 -0.05,3.5 -0.04,7.01 -0.1,10.51 -1.29,-0.28 -2.56,-0.58 -3.82,-0.89 -1.18,0.77 -3.64,0.77 -3.5,2.67 -0.18,1.45 -0.19,2.9 -0.05,4.35 2.59,0.54 5.28,0.14 7.93,0.21 -0.01,3 -0.04,6 0.01,9.01 -2.67,-0.01 -5.34,-0.02 -7.99,-0.01 -0.03,12.52 -0.03,25.04 -0.03,37.56 -4.32,0 -8.64,-0.05 -12.95,0.01 -0.1,-12.53 0.05,-25.06 -0.1,-37.59 -2.16,0.01 -4.31,0.02 -6.45,0.04 -0.04,-2.98 -0.06,-5.95 -0.1,-8.93 2.18,-0.06 4.37,-0.08 6.57,-0.1 0.03,-4.72 -0.2,-10.14 3.11,-13.92 z"
       id="path46" />
    <path
       fill="#2384c5"
       opacity="1"
       d="m 791.63,251.99 c 4.43,0.02 8.87,0 13.32,0.02 0.03,21.02 0.19,42.04 -0.06,63.06 -4.45,-0.01 -8.9,-0.06 -13.35,0.01 0.01,-21.03 -0.17,-42.07 0.09,-63.09 z"
       id="path48" />
    <path
       fill="#2384c5"
       opacity="1"
       d="m 1136.46,251.49 c 4.19,-0.01 8.39,0.03 12.6,0.04 -0.02,3.82 -0.01,7.64 -0.09,11.46 -4.17,0.02 -8.34,0.01 -12.5,0.01 0.09,-3.84 0.06,-7.67 -0.01,-11.51 z"
       id="path50" />
    <path
       fill="#2384c5"
       opacity="1"
       d="m 1108.14,255.43 c 4.11,0.04 8.23,0.07 12.36,0.08 -0.02,4.34 -0.05,8.69 0.05,13.03 2.46,-0.01 4.93,-0.07 7.41,-0.09 0.04,3.02 0.04,6.04 0.02,9.06 -2.5,0.03 -4.99,-0.02 -7.46,-0.04 0.1,9.14 -0.31,18.3 0.19,27.44 2.34,0.81 4.8,1.23 7.3,0.88 -0.02,3.2 -0.01,6.41 -0.05,9.62 -5.89,-0.05 -12.68,1.19 -17.65,-2.75 -3.13,-2.99 -2.15,-7.78 -2.32,-11.66 0.05,-7.79 -0.04,-15.59 0.05,-23.38 -2.17,-0.14 -4.34,-0.16 -6.49,-0.19 -0.07,-2.96 -0.09,-5.93 -0.05,-8.89 2.07,-0.3 4.58,0.76 6.42,-0.55 0.23,-4.19 -0.07,-8.38 0.22,-12.56 z"
       id="path52" />
    <path
       fill="#2384c5"
       opacity="1"
       d="m 833.43,268.49 c 6.15,-2.49 13.71,-2.02 19.18,1.9 3.66,2.6 4.98,7.3 4.9,11.6 -0.05,11.05 0.05,22.11 -0.05,33.16 -4.32,-0.24 -8.64,-0.23 -12.96,-0.1 -0.03,-10.64 0.17,-21.29 -0.07,-31.92 -0.99,-7.04 -12.06,-7.37 -14.83,-1.47 -0.94,1.98 -1.63,4.12 -1.6,6.33 -0.1,9.06 0.18,18.11 -0.14,27.16 -4.26,-0.19 -8.51,-0.2 -12.76,-0.21 -0.26,-15.62 0.05,-31.24 -0.18,-46.86 4.23,-0.12 8.47,-0.11 12.7,-0.02 -0.09,1.86 -0.24,3.72 -0.37,5.58 2.1,-1.65 3.88,-3.74 6.18,-5.15 z"
       id="path54" />
    <path
       fill="#2384c5"
       opacity="1"
       d="m 909.43,267.48 c 6.95,-1.67 14.57,-1.17 20.93,2.22 5.88,3.76 9.48,10.37 10.5,17.17 0.72,7.51 -0.19,15.73 -5.19,21.73 -4.42,6.17 -12.51,8.02 -19.69,7.94 -5.78,-0.6 -12.11,-1.75 -16.15,-6.33 -7.86,-8.67 -9.07,-22.5 -3.34,-32.61 2.59,-5.05 7.37,-8.9 12.94,-10.12 m 5.09,10.13 c -3.24,0.65 -5.75,3.19 -6.93,6.19 -2.1,5.44 -2.05,11.83 0.66,17.04 2.87,5.48 10.74,6.11 15.44,2.75 3.17,-2.92 3.89,-7.44 4.25,-11.53 -0.11,-4.25 -0.73,-9.01 -4.05,-12.04 -2.34,-2.55 -6.13,-3.11 -9.37,-2.41 z"
       id="path56" />
    <path
       fill="#2384c5"
       opacity="1"
       d="m 965.44,269.42 c 3,-2.2 6.85,-2.4 10.42,-2.65 0.22,4.41 0.13,8.82 0.14,13.23 -3.94,0.15 -8.67,-0.97 -11.67,2.31 -3.15,2.58 -3.11,6.94 -3.33,10.65 -0.09,7.37 0.06,14.75 -0.13,22.13 -4.13,0 -8.25,-0.07 -12.37,-0.07 -0.03,-15.65 0.21,-31.32 -0.12,-46.97 3.98,-0.07 7.97,-0.05 11.97,-0.07 0.11,2.33 0.15,4.67 0.28,7.01 1.48,-1.95 2.89,-4.01 4.81,-5.57 z"
       id="path58" />
    <path
       fill="#2384c5"
       opacity="1"
       d="m 1000.91,268.11 c 6.62,-2.68 15.27,-0.74 18.71,5.92 4.25,-5.45 11.55,-8.48 18.33,-6.39 5.87,1.12 10.24,6.62 10.61,12.47 -0.1,11.64 -0.1,23.29 -0.05,34.94 -4.33,0.03 -8.66,-0.04 -12.98,-0.1 -0.04,-10.33 -0.02,-20.66 -0.01,-30.99 0.22,-3.41 -3.1,-6.55 -6.51,-6.01 -4.49,-0.51 -7.56,4.01 -7.55,8.07 0.06,9.63 0.05,19.26 0.04,28.89 -4.34,0.18 -8.68,0.15 -13.01,0.06 0.1,-9.33 -0.04,-18.67 0.08,-28 -0.07,-2.32 0.13,-5.07 -1.69,-6.82 -3.53,-4.48 -12.38,-1.97 -12.35,3.96 -0.09,10.31 -0.02,20.63 -0.04,30.95 -4.32,0 -8.64,-0.04 -12.95,-0.01 0.09,-15.69 -0.31,-31.4 0.11,-47.08 3.96,0.2 7.99,-0.35 11.92,0.34 0.04,1.84 -0.13,3.68 -0.13,5.52 2.33,-2.09 4.25,-4.93 7.47,-5.72 z"
       id="path60" />
    <path
       fill="#2384c5"
       opacity="1"
       d="m 1061.61,271.66 c 5.95,-4.78 14.16,-5.34 21.44,-4.21 4.44,0.95 9.58,2.17 12.14,6.31 2.56,3.93 1.67,8.79 1.8,13.21 0.08,7.05 -0.21,14.11 0.15,21.15 0.06,2.53 1.92,4.44 3.04,6.57 -4.72,0.48 -9.5,0.54 -14.22,0.16 -0.91,-1.3 -0.55,-3.07 -0.87,-4.53 -3.47,2.2 -6.82,5.01 -11.03,5.56 -4.37,0.3 -9.18,0.66 -12.93,-2.05 -5.95,-3.45 -6.84,-11.55 -4.76,-17.53 1.87,-5.21 7.28,-8.09 12.48,-8.96 4.77,-1.08 10.13,-0.36 14.44,-3.06 2.64,-1.83 0.72,-6.13 -2.11,-6.5 -2.93,-0.51 -6.11,-0.71 -8.93,0.37 -1.93,1.1 -2.49,3.35 -3.28,5.25 -4.06,0.11 -8.12,0.18 -12.17,-0.04 0.1,-1.29 0.23,-2.57 0.37,-3.85 1.09,-2.79 2,-5.89 4.44,-7.85 m 11.13,24 c -3.78,1 -6.38,5.74 -3.71,9.11 3.19,3.83 8.93,2.22 12.35,-0.43 3.48,-2.75 3.03,-7.65 3.33,-11.61 -3.82,1.65 -7.98,1.99 -11.97,2.93 z"
       id="path62" />
    <path
       fill="#2384c5"
       opacity="1"
       d="m 1167.8,268.87 c 7.77,-3.02 17.18,-2.57 24.29,1.95 4.73,3.14 6.17,8.96 6.83,14.25 -4.33,-0.07 -8.67,-0.02 -12.99,-0.14 -0.68,-2.82 -2.08,-5.92 -5.11,-6.8 -2.55,-0.26 -5.46,-0.64 -7.61,1.07 -3.72,2.64 -4.58,7.54 -4.73,11.8 -0.05,4.24 0.34,8.94 3.24,12.29 2.3,2.69 6.26,2.41 9.45,2.02 3.14,-1.28 4.03,-4.86 4.72,-7.83 4.24,0.02 8.49,-0.01 12.74,0.07 -0.16,6.91 -4.56,13.18 -10.41,16.59 -6.74,3.17 -14.77,2.99 -21.61,0.22 -9.95,-4.58 -12.11,-17 -11.03,-26.83 0.73,-7.65 4.75,-15.67 12.22,-18.66 z"
       id="path64" />
    <path
       fill="#2384c5"
       opacity="1"
       d="m 1213.7,268.64 c 4.78,-2.32 10.28,-1.68 15.43,-1.54 4.85,0.73 10.14,2.54 12.98,6.82 1.76,2.5 2.08,5.62 2.66,8.54 -3.97,0.06 -7.95,-0.14 -11.9,0.26 -1.3,-2.13 -2.35,-4.83 -5.02,-5.53 -3.61,-1.25 -9.25,-1.28 -10.96,2.87 -0.02,1.3 0.55,2.64 1.87,3.13 7.7,3.15 17.1,2.64 23.61,8.45 6.2,5.99 4.18,17.37 -3.21,21.52 -7.84,4.2 -17.43,4.13 -25.8,1.62 -6.4,-1.97 -10.83,-8.58 -10.44,-15.23 4.05,-0.12 8.13,0.18 12.17,-0.34 0.82,1.73 1.39,3.61 2.53,5.19 3.68,2.74 8.84,2.78 13.06,1.37 2.59,-0.96 3.45,-4.78 0.66,-6.08 -7.45,-3.37 -16.31,-3.12 -23.17,-7.9 -3.11,-2.21 -3.98,-6.22 -3.67,-9.82 -0.35,-5.89 3.99,-11.1 9.2,-13.33 z"
       id="path66" />
    <path
       fill="#2384c5"
       opacity="1"
       d="m 1136.43,268 c 4.2,0 8.41,-0.03 12.62,0.05 -0.23,15.68 0.16,31.36 -0.18,47.04 -4.12,0 -8.24,-0.07 -12.35,-0.07 -0.05,-15.67 0.14,-31.35 -0.09,-47.02 z"
       id="path68" />
    <path
       fill="#2384c5"
       opacity="1"
       d="m 74.05,296.91 c 34.47,0.23 68.95,-0.11 103.43,0.19 0.08,7.64 -0.28,15.29 0.62,22.9 -34.7,0 -69.4,0 -104.1,0 0.02,-7.7 -0.04,-15.4 0.05,-23.09 z"
       id="path70" />
    <path
       fill="#2384c5"
       opacity="1"
       d="m 202.44,296.94 c 57.82,0.02 115.64,0.17 173.46,-0.04 0.21,7.7 0.05,15.4 0.1,23.1 -52.02,0.01 -104.04,-0.02 -156.06,0.01 -3.27,0.65 -4.22,-3.06 -5.82,-5.07 -3.89,-6 -7.87,-11.95 -11.68,-18 z"
       id="path72" />
    <path
       fill="#2384c5"
       opacity="1"
       d="m 404.05,296.91 c 34.47,0.27 68.95,-0.14 103.42,0.18 0.09,7.63 -0.04,15.26 0.04,22.89 -34.5,0.05 -69,0.01 -103.51,0.02 0.02,-7.7 -0.04,-15.4 0.05,-23.09 z"
       id="path74" />
    <path
       fill="#2384c5"
       opacity="1"
       d="m 536.39,296.95 c 67.7,0.17 135.39,-0.16 203.08,0.14 0.09,7.63 -0.04,15.26 0.04,22.89 -64,0.04 -128.01,0.03 -192.01,0 -3.96,-7.54 -8.6,-14.82 -11.11,-23.03 z"
       id="path76" />
    <path
       fill="#2384c5"
       opacity="1"
       d="m 808.13,328.18 c 7.17,-2.45 15.15,-2.17 22.28,0.3 8.7,2.99 14.99,11.64 15.45,20.79 -4.5,-0.6 -9.11,0.16 -13.55,-0.45 -1.42,-2.86 -2.18,-6.29 -5.03,-8.15 -5.37,-3.47 -13.59,-3.45 -17.97,1.65 -4.43,4.67 -5.47,11.52 -5.35,17.72 -0.13,5.88 0.91,12.41 5.38,16.64 4.47,4.75 12.53,5.32 17.69,1.35 3.05,-1.98 3.65,-5.84 5.29,-8.82 4.35,-0.72 8.89,0.01 13.31,-0.14 -0.94,8.33 -5.82,16.31 -13.29,20.29 -8.05,4.29 -18.02,4.03 -26.33,0.62 -7.49,-3.16 -12.59,-10.35 -14.69,-18.02 -2.04,-9.36 -2.19,-19.49 1.36,-28.51 2.71,-6.96 8.36,-12.77 15.45,-15.27 z"
       id="path78" />
    <path
       fill="#2384c5"
       opacity="1"
       d="m 955.96,331.58 c 4.17,-0.2 8.35,-0.08 12.54,-0.06 -0.02,4.32 -0.03,8.65 0.01,12.98 2.47,0.04 4.95,-0.02 7.43,-0.07 0.09,3.07 0.09,6.16 -0.11,9.23 -2.43,-0.11 -4.84,-0.2 -7.25,-0.27 -0.18,7.53 -0.02,15.08 -0.14,22.62 0.05,1.67 -0.18,3.47 0.6,5.03 2.28,0.6 4.66,0.43 7,0.61 -0.04,3.09 -0.04,6.18 -0.12,9.27 -5.45,0.69 -11.4,1.22 -16.45,-1.4 -2.69,-1.41 -3.47,-4.61 -3.46,-7.41 -0.04,-8.74 0.02,-17.49 0,-26.23 0.79,-3.96 -4.28,-1.98 -6.45,-2.43 -0.07,-2.97 -0.09,-5.93 -0.08,-8.89 2.09,-0.29 4.56,0.68 6.44,-0.55 0.23,-4.14 0.03,-8.29 0.04,-12.43 z"
       id="path80" />
    <path
       fill="#2384c5"
       opacity="1"
       d="m 74,332 c 34.82,0.01 69.65,-0.01 104.47,0.01 0.02,5.33 0.16,10.67 -0.12,16 -34.78,-0.03 -69.56,0 -104.35,-0.01 0,-5.34 0,-10.67 0,-16 z"
       id="path82" />
    <path
       fill="#2384c5"
       opacity="1"
       d="m 225.21,332.43 c 3.88,-0.68 7.84,-0.4 11.76,-0.43 46.35,0 92.69,0 139.03,0 0,5.33 0,10.67 0,16 -46.72,0.04 -93.43,-0.07 -140.15,0.05 -3.73,-5.08 -6.72,-10.67 -10.64,-15.62 z"
       id="path84" />
    <path
       fill="#2384c5"
       opacity="1"
       d="m 404,332 c 34.53,0 69.06,-0.01 103.59,0.01 -0.18,5.32 -0.11,10.64 -0.08,15.97 -34.5,0.05 -69,0.01 -103.51,0.02 0,-5.34 0,-10.67 0,-16 z"
       id="path86" />
    <path
       fill="#2384c5"
       opacity="1"
       d="m 555.87,332.43 c 3.36,-0.59 6.78,-0.46 10.18,-0.43 57.85,0.01 115.69,-0.01 173.54,0.01 -0.18,5.32 -0.11,10.64 -0.08,15.97 -56.57,0.08 -113.14,-0.05 -169.7,0.06 -5.2,-4.69 -9.23,-10.47 -13.94,-15.61 z"
       id="path88" />
    <path
       fill="#2384c5"
       opacity="1"
       d="m 852.8,354.87 c 3.41,-8.1 12.6,-12.68 21.15,-11.93 6.85,-0.36 14.08,2.24 18.24,7.89 4.39,5.69 5.17,13.21 4.81,20.17 -11.33,-0.09 -22.66,0.18 -33.98,-0.1 0.26,4.02 1.99,8.5 6.11,9.93 5.07,2.71 11.92,0.79 14.62,-4.35 4.3,0.04 8.6,-0.03 12.9,0.16 -1.68,7.11 -7.55,12.9 -14.61,14.62 -8.3,2.21 -17.82,0.89 -24.6,-4.59 -4.43,-3.5 -6.57,-9.2 -6.91,-14.71 -0.06,-5.74 -0.48,-11.82 2.27,-17.09 m 15.79,-0.44 c -3.12,1.49 -4.37,4.95 -5.35,8.02 6.87,0.11 13.76,0.23 20.64,-0.11 -0.41,-7.3 -9.2,-11.16 -15.29,-7.91 z"
       id="path90" />
    <path
       fill="#2384c5"
       opacity="1"
       d="m 919,344.99 c 6.18,-3.2 14.15,-2.76 19.96,1.06 4.21,2.79 5.29,8.22 5.56,12.92 -0.03,10.51 -0.02,21.03 -0.05,31.54 -4.32,-0.06 -8.64,-0.05 -12.96,0 -0.01,-8.83 -0.01,-17.66 0.01,-26.49 0.01,-2.49 -0.13,-5.09 -1.27,-7.35 -1.2,-2.23 -3.89,-2.73 -6.04,-3.56 -2.67,0.73 -5.95,1.04 -7.5,3.67 -1.43,2.45 -2.32,5.28 -2.24,8.14 0.02,8.52 0.04,17.05 0,25.58 -4.17,-0.04 -8.33,0.07 -12.48,-0.08 0.03,-15.48 0,-30.95 0.01,-46.42 3.97,0 7.94,0 11.92,0 0.08,1.91 0.18,3.82 0.38,5.73 1.61,-1.53 2.83,-3.5 4.7,-4.74 z"
       id="path92" />
    <path
       fill="#2384c5"
       opacity="1"
       d="m 1001.27,344.34 c 2.62,-1.49 5.69,-1.35 8.61,-1.53 0.19,4.46 0.12,8.92 0.1,13.38 -1.33,-0.28 -2.64,-0.58 -3.94,-0.9 -4.16,0.59 -8.89,2.3 -10.18,6.77 -1.74,9.37 -0.48,18.96 -0.82,28.43 -4.19,-0.02 -8.37,-0.03 -12.54,0.04 -0.06,-15.49 0.26,-30.99 -0.15,-46.47 3.99,-0.08 7.99,-0.06 11.99,-0.08 0.11,2.35 0.18,4.71 0.38,7.06 1.79,-2.56 3.6,-5.37 6.55,-6.7 z"
       id="path94" />
    <path
       fill="#2384c5"
       opacity="1"
       d="m 1017.34,350.42 c 4.48,-5.45 11.76,-8.04 18.7,-7.48 7.51,-0.35 15.39,3.18 19.19,9.86 3.72,5.31 3.37,12.03 3.28,18.2 -11.28,0.05 -22.56,-0.14 -33.83,0.17 0.41,4.04 2.44,8.2 6.4,9.78 4.91,2.5 11.69,0.77 14.21,-4.31 4.32,-0.16 8.65,-0.19 12.98,-0.1 -1.31,7.39 -7.59,13.17 -14.77,14.82 -7.07,1.66 -14.9,1.14 -21.26,-2.61 -5.7,-2.92 -9.07,-9.08 -9.83,-15.27 -1.15,-7.89 -0.32,-16.71 4.93,-23.06 m 7.69,12.1 c 6.84,0.01 13.68,0.03 20.52,-0.04 -0.04,-5.89 -5.94,-9.87 -11.46,-9.1 -5.03,0.08 -8.09,4.68 -9.06,9.14 z"
       id="path96" />
    <path
       fill="#2384c5"
       opacity="1"
       d="m 74.1,359.46 c 34.89,0.02 69.78,0.12 104.66,-0.04 0.87,3.96 0.78,8.02 0.81,12.05 -35.16,0.19 -70.32,-0.1 -105.47,0.14 -0.15,-4.05 -0.15,-8.1 0,-12.15 z"
       id="path98" />
    <path
       fill="#2384c5"
       opacity="1"
       d="m 243.42,359.45 c 44.2,0.19 88.41,-0.18 132.61,0.19 -0.04,4 0.05,8.01 -0.19,12.01 -40.63,-0.3 -81.27,-0.04 -121.91,-0.13 -1.12,-0.14 -2.66,0.32 -3.34,-0.88 -2.56,-3.62 -4.82,-7.44 -7.17,-11.19 z"
       id="path100" />
    <path
       fill="#2384c5"
       opacity="1"
       d="m 404.09,359.47 c 34.46,0.03 68.92,0.06 103.37,-0.01 0.09,4.02 0.03,8.05 0.07,12.07 -34.47,0.06 -68.94,-0.14 -103.4,0.1 -0.2,-4.05 -0.18,-8.11 -0.04,-12.16 z"
       id="path102" />
    <path
       fill="#2384c5"
       opacity="1"
       d="m 582.92,359.77 c 15.35,-0.64 30.74,-0.1 46.1,-0.28 36.82,-0.01 73.64,0.03 110.46,-0.02 0.06,4.02 0.01,8.04 0.05,12.07 -45.88,-0.03 -91.75,0 -137.63,-0.02 -1.52,0.06 -3.06,-0.21 -4.26,-1.2 -4.95,-3.46 -10.16,-6.55 -14.72,-10.55 z"
       id="path104" />
    <path
       fill="#2384c5"
       opacity="1"
       d="m 623.93,382.81 c 38.49,0.48 77.01,-0.02 115.52,0.26 0,2.29 0.06,4.59 0.08,6.89 -31.2,0.07 -62.4,0.06 -93.6,0.01 -7.63,-1.07 -15.28,-3.38 -22,-7.16 z"
       id="path106" />
    <path
       fill="#2384c5"
       opacity="1"
       d="m 74.06,382.9 c 35.28,0.3 70.56,0.18 105.83,-0.01 0.1,2.68 0.27,5.39 -0.09,8.07 -35.24,0.13 -70.5,-0.02 -105.75,0.08 C 74,388.32 74,385.61 74.06,382.9 Z"
       id="path108" />
    <path
       fill="#2384c5"
       opacity="1"
       d="m 258.97,383.15 c 38.96,-0.34 77.95,0.19 116.92,-0.26 0.1,2.69 0.27,5.4 -0.09,8.08 -36.99,0.07 -74,0.05 -111,0.01 -2.64,-1.81 -3.87,-5.29 -5.83,-7.83 z"
       id="path110" />
    <path
       fill="#2384c5"
       opacity="1"
       d="m 403.99,383.09 c 34.5,-0.04 69,-0.1 103.5,0.02 0.01,2.67 0.02,5.33 -0.01,8 -34.47,-0.21 -68.95,-0.08 -103.42,-0.07 -0.05,-2.65 -0.07,-5.3 -0.07,-7.95 z"
       id="path112" />
  </g>
</svg>
